<svg width="24" height="24" viewBox="0 0 24 24" fill="none" xmlns="http://www.w3.org/2000/svg">
<path d="M11.551 12.1124V17.8652H9.79536V12.1124H8V10.1348H13.3384V12.1124H11.551Z" fill="white"/>
<path d="M16.4341 10C17.1331 10 17.7078 10.2022 18.1579 10.6067C18.6081 11.0037 18.8385 11.5955 18.8491 12.382V12.5169H17.2046V12.4719C17.2046 12.2472 17.1464 12.0599 17.0299 11.9101C16.9134 11.7603 16.7359 11.6854 16.4976 11.6854C16.2646 11.6854 16.0845 11.7341 15.9574 11.8315C15.8356 11.9288 15.7747 12.0487 15.7747 12.191C15.7747 12.3933 15.8594 12.5431 16.0289 12.6404C16.1984 12.7378 16.4711 12.839 16.8472 12.9438C17.2867 13.0712 17.6469 13.206 17.9275 13.3483C18.2135 13.4831 18.4625 13.7079 18.6743 14.0225C18.8861 14.3371 18.9947 14.764 19 15.3034C19 16.2172 18.7802 16.8951 18.3406 17.3371C17.9064 17.779 17.3238 18 16.5929 18C15.7403 18 15.0756 17.7978 14.599 17.3933C14.1276 16.9888 13.892 16.2734 13.892 15.2472H15.5523C15.5523 15.6367 15.6238 15.8989 15.7668 16.0337C15.9098 16.161 16.1322 16.2247 16.4341 16.2247C16.6565 16.2247 16.8392 16.191 16.9822 16.1236C17.1305 16.0562 17.2046 15.9176 17.2046 15.7079C17.2046 15.5206 17.1225 15.382 16.9584 15.2921C16.7995 15.1948 16.5373 15.0936 16.1719 14.9888C15.727 14.8539 15.359 14.7154 15.0677 14.573C14.7764 14.4232 14.5222 14.1798 14.3051 13.8427C14.0879 13.5056 13.9793 13.0487 13.9793 12.4719C13.9793 11.6255 14.2097 11.0037 14.6705 10.6067C15.1365 10.2022 15.7244 10 16.4341 10Z" fill="white"/>
<mask id="path-2-inside-1_71_15" fill="white">
<rect x="2" y="2" width="20" height="20" rx="1"/>
</mask>
<rect x="2" y="2" width="20" height="20" rx="1" stroke="white" stroke-width="4" stroke-linejoin="round" mask="url(#path-2-inside-1_71_15)"/>
</svg>
